<svg xmlns="http://www.w3.org/2000/svg" xmlns:xlink="http://www.w3.org/1999/xlink" contentStyleType="text/css" data-diagram-type="ACTIVITY" height="1143px" preserveAspectRatio="none" style="width:536px;height:1143px;background:#FFFFFF;" version="1.1" viewBox="0 0 536 1143" width="536px" zoomAndPan="magnify"><title>**DC_plus.py, Activity Workflow**</title><defs/><g><g class="title" data-source-line="1"><text fill="#000000" font-family="sans-serif" font-size="14" font-weight="bold" lengthAdjust="spacing" textLength="236.6328" x="148.6191" y="32.9951">DC_plus.py, Activity Workflow</text></g><ellipse cx="268.4355" cy="57.2969" fill="#222222" rx="10" ry="10" style="stroke:#222222;stroke-width:1;"/><rect fill="#F1F1F1" height="47.9375" rx="12.5" ry="12.5" style="stroke:#181818;stroke-width:0.5;" width="181.5898" x="177.6406" y="87.2969"/><text fill="#000000" font-family="sans-serif" font-size="12" lengthAdjust="spacing" textLength="92.0215" x="187.6406" y="108.4355">Load input files</text><text fill="#000000" font-family="sans-serif" font-size="12" lengthAdjust="spacing" textLength="161.5898" x="187.6406" y="122.4043">(KGML / SBML / AUTO CSV)</text><rect fill="#F1F1F1" height="47.9375" rx="12.5" ry="12.5" style="stroke:#181818;stroke-width:0.5;" width="168.7402" x="184.0654" y="155.2344"/><text fill="#000000" font-family="sans-serif" font-size="12" lengthAdjust="spacing" textLength="148.7402" x="194.0654" y="176.373">Parse species, reactions,</text><text fill="#000000" font-family="sans-serif" font-size="12" lengthAdjust="spacing" textLength="148.4414" x="194.0654" y="190.3418">and optional parameters</text><rect fill="#F1F1F1" height="47.9375" rx="12.5" ry="12.5" style="stroke:#181818;stroke-width:0.5;" width="210.0254" x="163.4229" y="223.1719"/><text fill="#000000" font-family="sans-serif" font-size="12" lengthAdjust="spacing" textLength="190.0254" x="173.4229" y="244.3105">Construct stoichiometric matrix</text><text fill="#000000" font-family="sans-serif" font-size="12" lengthAdjust="spacing" textLength="104.1504" x="173.4229" y="258.2793">and reaction_info</text><rect fill="#F1F1F1" height="47.9375" rx="12.5" ry="12.5" style="stroke:#181818;stroke-width:0.5;" width="188.3691" x="174.251" y="291.1094"/><text fill="#000000" font-family="sans-serif" font-size="12" lengthAdjust="spacing" textLength="168.3691" x="184.251" y="312.248">Determine common species</text><text fill="#000000" font-family="sans-serif" font-size="12" lengthAdjust="spacing" textLength="141.7734" x="184.251" y="326.2168">between both networks</text><polygon fill="#F1F1F1" points="223.9146,359.0469,312.9565,359.0469,324.9565,371.0469,312.9565,383.0469,223.9146,383.0469,211.9146,371.0469,223.9146,359.0469" style="stroke:#181818;stroke-width:0.5;"/><text fill="#000000" font-family="sans-serif" font-size="11" lengthAdjust="spacing" textLength="89.042" x="223.9146" y="374.855">Dynamic mode?</text><text fill="#000000" font-family="sans-serif" font-size="11" lengthAdjust="spacing" textLength="24.0786" x="187.8359" y="368.4526">ODE</text><text fill="#000000" font-family="sans-serif" font-size="11" lengthAdjust="spacing" textLength="46.9971" x="324.9565" y="368.4526">Gillespie</text><rect fill="#F1F1F1" height="47.9375" rx="12.5" ry="12.5" style="stroke:#181818;stroke-width:0.5;" width="172.4434" x="80.6279" y="393.0469"/><text fill="#000000" font-family="sans-serif" font-size="12" lengthAdjust="spacing" textLength="144.4688" x="90.6279" y="414.1855">Simulate ODE dynamics</text><text fill="#000000" font-family="sans-serif" font-size="12" lengthAdjust="spacing" textLength="152.4434" x="90.6279" y="428.1543">(solve_ivp / simulate_mc)</text><rect fill="#F1F1F1" height="33.9688" rx="12.5" ry="12.5" style="stroke:#181818;stroke-width:0.5;" width="168.8457" x="285.5986" y="393.0469"/><text fill="#000000" font-family="sans-serif" font-size="12" lengthAdjust="spacing" textLength="148.8457" x="295.5986" y="414.1855">Estimate volume for SSA</text><rect fill="#F1F1F1" height="47.9375" rx="12.5" ry="12.5" style="stroke:#181818;stroke-width:0.5;" width="193.9004" x="273.0713" y="460.9844"/><text fill="#000000" font-family="sans-serif" font-size="12" lengthAdjust="spacing" textLength="155.5078" x="283.0713" y="482.123">Run Gillespie Monte-Carlo</text><text fill="#000000" font-family="sans-serif" font-size="12" lengthAdjust="spacing" textLength="173.9004" x="283.0713" y="496.0918">(simulate_gillespie_mc_auto)</text><polygon fill="#F1F1F1" points="268.4355,514.9219,280.4355,526.9219,268.4355,538.9219,256.4355,526.9219,268.4355,514.9219" style="stroke:#181818;stroke-width:0.5;"/><rect fill="#F1F1F1" height="33.9688" rx="12.5" ry="12.5" style="stroke:#181818;stroke-width:0.5;" width="240.2773" x="148.2969" y="558.9219"/><text fill="#000000" font-family="sans-serif" font-size="12" lengthAdjust="spacing" textLength="220.2773" x="158.2969" y="580.0605">Extract common-species trajectories</text><rect fill="#F1F1F1" height="47.9375" rx="12.5" ry="12.5" style="stroke:#181818;stroke-width:0.5;" width="182.6152" x="177.1279" y="612.8906"/><text fill="#000000" font-family="sans-serif" font-size="12" lengthAdjust="spacing" textLength="162.6152" x="187.1279" y="634.0293">Compute similarity metrics</text><text fill="#000000" font-family="sans-serif" font-size="12" lengthAdjust="spacing" textLength="156.1172" x="187.1279" y="647.998">(DTW, MSE, Pearson Corr)</text><rect fill="#555555" height="6" rx="2.5" ry="2.5" style="stroke:#555555;stroke-width:1;" width="514.8711" x="11" y="680.8281"/><rect fill="#F1F1F1" height="33.9688" rx="12.5" ry="12.5" style="stroke:#181818;stroke-width:0.5;" width="114.6875" x="23" y="706.8281"/><text fill="#000000" font-family="sans-serif" font-size="12" lengthAdjust="spacing" textLength="94.6875" x="33" y="727.9668">Plot trajectories</text><rect fill="#F1F1F1" height="33.9688" rx="12.5" ry="12.5" style="stroke:#181818;stroke-width:0.5;" width="155.0234" x="165.6875" y="706.8281"/><text fill="#000000" font-family="sans-serif" font-size="12" lengthAdjust="spacing" textLength="135.0234" x="175.6875" y="727.9668">Plot species heatmaps</text><rect fill="#F1F1F1" height="33.9688" rx="12.5" ry="12.5" style="stroke:#181818;stroke-width:0.5;" width="165.1602" x="348.7109" y="706.8281"/><text fill="#000000" font-family="sans-serif" font-size="12" lengthAdjust="spacing" textLength="145.1602" x="358.7109" y="727.9668">Plot overlay of networks</text><rect fill="#555555" height="6" rx="2.5" ry="2.5" style="stroke:#555555;stroke-width:1;" width="514.8711" x="11" y="760.7969"/><rect fill="#F1F1F1" height="47.9375" rx="12.5" ry="12.5" style="stroke:#181818;stroke-width:0.5;" width="165.9395" x="185.4658" y="835.1992"/><text fill="#000000" font-family="sans-serif" font-size="12" lengthAdjust="spacing" textLength="145.9395" x="195.4658" y="856.3379">Generate animated MP4</text><text fill="#000000" font-family="sans-serif" font-size="12" lengthAdjust="spacing" textLength="119.4609" x="195.4658" y="870.3066">(network dynamics)</text><polygon fill="#F1F1F1" points="213.594,786.7969,323.2771,786.7969,335.2771,798.7969,323.2771,810.7969,213.594,810.7969,201.594,798.7969,213.594,786.7969" style="stroke:#181818;stroke-width:0.5;"/><text fill="#000000" font-family="sans-serif" font-size="11" lengthAdjust="spacing" textLength="19.0083" x="272.4355" y="821.0073">yes</text><text fill="#000000" font-family="sans-serif" font-size="11" lengthAdjust="spacing" textLength="109.6831" x="213.594" y="802.605">Animation enabled?</text><polygon fill="#F1F1F1" points="268.4355,903.1367,280.4355,915.1367,268.4355,927.1367,256.4355,915.1367,268.4355,903.1367" style="stroke:#181818;stroke-width:0.5;"/><rect fill="#F1F1F1" height="75.875" rx="12.5" ry="12.5" style="stroke:#181818;stroke-width:0.5;" width="139.8008" x="198.5352" y="947.1367"/><text fill="#000000" font-family="sans-serif" font-size="12" lengthAdjust="spacing" textLength="106.4414" x="208.5352" y="968.2754">Assemble results:</text><text fill="#000000" font-family="sans-serif" font-size="12" lengthAdjust="spacing" textLength="37.3945" x="208.5352" y="982.2441">- plots</text><text fill="#000000" font-family="sans-serif" font-size="12" lengthAdjust="spacing" textLength="53.0391" x="208.5352" y="996.2129">- metrics</text><text fill="#000000" font-family="sans-serif" font-size="12" lengthAdjust="spacing" textLength="119.8008" x="208.5352" y="1010.1816">- per-species scores</text><rect fill="#F1F1F1" height="47.9375" rx="12.5" ry="12.5" style="stroke:#181818;stroke-width:0.5;" width="141.0078" x="197.9316" y="1043.0117"/><text fill="#000000" font-family="sans-serif" font-size="12" lengthAdjust="spacing" textLength="121.0078" x="207.9316" y="1064.1504">Write summary.json</text><text fill="#000000" font-family="sans-serif" font-size="12" lengthAdjust="spacing" textLength="119.7598" x="207.9316" y="1078.1191">and save all images</text><ellipse cx="268.4355" cy="1121.9492" fill="none" rx="11" ry="11" style="stroke:#222222;stroke-width:1;"/><ellipse cx="268.4355" cy="1121.9492" fill="#222222" rx="6" ry="6" style="stroke:#222222;stroke-width:1;"/><line style="stroke:#181818;stroke-width:1;" x1="268.4355" x2="268.4355" y1="67.2969" y2="87.2969"/><polygon fill="#181818" points="264.4355,77.2969,268.4355,87.2969,272.4355,77.2969,268.4355,81.2969" style="stroke:#181818;stroke-width:1;"/><line style="stroke:#181818;stroke-width:1;" x1="268.4355" x2="268.4355" y1="135.2344" y2="155.2344"/><polygon fill="#181818" points="264.4355,145.2344,268.4355,155.2344,272.4355,145.2344,268.4355,149.2344" style="stroke:#181818;stroke-width:1;"/><line style="stroke:#181818;stroke-width:1;" x1="268.4355" x2="268.4355" y1="203.1719" y2="223.1719"/><polygon fill="#181818" points="264.4355,213.1719,268.4355,223.1719,272.4355,213.1719,268.4355,217.1719" style="stroke:#181818;stroke-width:1;"/><line style="stroke:#181818;stroke-width:1;" x1="268.4355" x2="268.4355" y1="271.1094" y2="291.1094"/><polygon fill="#181818" points="264.4355,281.1094,268.4355,291.1094,272.4355,281.1094,268.4355,285.1094" style="stroke:#181818;stroke-width:1;"/><line style="stroke:#181818;stroke-width:1;" x1="370.0215" x2="370.0215" y1="427.0156" y2="460.9844"/><polygon fill="#181818" points="366.0215,450.9844,370.0215,460.9844,374.0215,450.9844,370.0215,454.9844" style="stroke:#181818;stroke-width:1;"/><line style="stroke:#181818;stroke-width:1;" x1="211.9146" x2="166.8496" y1="371.0469" y2="371.0469"/><line style="stroke:#181818;stroke-width:1;" x1="166.8496" x2="166.8496" y1="371.0469" y2="393.0469"/><polygon fill="#181818" points="162.8496,383.0469,166.8496,393.0469,170.8496,383.0469,166.8496,387.0469" style="stroke:#181818;stroke-width:1;"/><line style="stroke:#181818;stroke-width:1;" x1="324.9565" x2="370.0215" y1="371.0469" y2="371.0469"/><line style="stroke:#181818;stroke-width:1;" x1="370.0215" x2="370.0215" y1="371.0469" y2="393.0469"/><polygon fill="#181818" points="366.0215,383.0469,370.0215,393.0469,374.0215,383.0469,370.0215,387.0469" style="stroke:#181818;stroke-width:1;"/><line style="stroke:#181818;stroke-width:1;" x1="166.8496" x2="166.8496" y1="440.9844" y2="526.9219"/><line style="stroke:#181818;stroke-width:1;" x1="166.8496" x2="256.4355" y1="526.9219" y2="526.9219"/><polygon fill="#181818" points="246.4355,522.9219,256.4355,526.9219,246.4355,530.9219,250.4355,526.9219" style="stroke:#181818;stroke-width:1;"/><line style="stroke:#181818;stroke-width:1;" x1="370.0215" x2="370.0215" y1="508.9219" y2="526.9219"/><line style="stroke:#181818;stroke-width:1;" x1="370.0215" x2="280.4355" y1="526.9219" y2="526.9219"/><polygon fill="#181818" points="290.4355,522.9219,280.4355,526.9219,290.4355,530.9219,286.4355,526.9219" style="stroke:#181818;stroke-width:1;"/><line style="stroke:#181818;stroke-width:1;" x1="268.4355" x2="268.4355" y1="339.0469" y2="359.0469"/><polygon fill="#181818" points="264.4355,349.0469,268.4355,359.0469,272.4355,349.0469,268.4355,353.0469" style="stroke:#181818;stroke-width:1;"/><line style="stroke:#181818;stroke-width:1;" x1="268.4355" x2="268.4355" y1="538.9219" y2="558.9219"/><polygon fill="#181818" points="264.4355,548.9219,268.4355,558.9219,272.4355,548.9219,268.4355,552.9219" style="stroke:#181818;stroke-width:1;"/><line style="stroke:#181818;stroke-width:1;" x1="268.4355" x2="268.4355" y1="592.8906" y2="612.8906"/><polygon fill="#181818" points="264.4355,602.8906,268.4355,612.8906,272.4355,602.8906,268.4355,606.8906" style="stroke:#181818;stroke-width:1;"/><line style="stroke:#181818;stroke-width:1;" x1="80.3438" x2="80.3438" y1="686.8281" y2="706.8281"/><polygon fill="#181818" points="76.3438,696.8281,80.3438,706.8281,84.3438,696.8281,80.3438,700.8281" style="stroke:#181818;stroke-width:1;"/><line style="stroke:#181818;stroke-width:1;" x1="243.1992" x2="243.1992" y1="686.8281" y2="706.8281"/><polygon fill="#181818" points="239.1992,696.8281,243.1992,706.8281,247.1992,696.8281,243.1992,700.8281" style="stroke:#181818;stroke-width:1;"/><line style="stroke:#181818;stroke-width:1;" x1="431.291" x2="431.291" y1="686.8281" y2="706.8281"/><polygon fill="#181818" points="427.291,696.8281,431.291,706.8281,435.291,696.8281,431.291,700.8281" style="stroke:#181818;stroke-width:1;"/><line style="stroke:#181818;stroke-width:1;" x1="80.3438" x2="80.3438" y1="740.7969" y2="760.7969"/><polygon fill="#181818" points="76.3438,750.7969,80.3438,760.7969,84.3438,750.7969,80.3438,754.7969" style="stroke:#181818;stroke-width:1;"/><line style="stroke:#181818;stroke-width:1;" x1="243.1992" x2="243.1992" y1="740.7969" y2="760.7969"/><polygon fill="#181818" points="239.1992,750.7969,243.1992,760.7969,247.1992,750.7969,243.1992,754.7969" style="stroke:#181818;stroke-width:1;"/><line style="stroke:#181818;stroke-width:1;" x1="431.291" x2="431.291" y1="740.7969" y2="760.7969"/><polygon fill="#181818" points="427.291,750.7969,431.291,760.7969,435.291,750.7969,431.291,754.7969" style="stroke:#181818;stroke-width:1;"/><line style="stroke:#181818;stroke-width:1;" x1="268.4355" x2="268.4355" y1="660.8281" y2="680.8281"/><polygon fill="#181818" points="264.4355,670.8281,268.4355,680.8281,272.4355,670.8281,268.4355,674.8281" style="stroke:#181818;stroke-width:1;"/><line style="stroke:#181818;stroke-width:1;" x1="268.4355" x2="268.4355" y1="810.7969" y2="835.1992"/><polygon fill="#181818" points="264.4355,825.1992,268.4355,835.1992,272.4355,825.1992,268.4355,829.1992" style="stroke:#181818;stroke-width:1;"/><line style="stroke:#181818;stroke-width:1;" x1="335.2771" x2="361.4053" y1="798.7969" y2="798.7969"/><polygon fill="#181818" points="357.4053,849.168,361.4053,859.168,365.4053,849.168,361.4053,853.168" style="stroke:#181818;stroke-width:1;"/><line style="stroke:#181818;stroke-width:1;" x1="361.4053" x2="361.4053" y1="798.7969" y2="915.1367"/><line style="stroke:#181818;stroke-width:1;" x1="361.4053" x2="280.4355" y1="915.1367" y2="915.1367"/><polygon fill="#181818" points="290.4355,911.1367,280.4355,915.1367,290.4355,919.1367,286.4355,915.1367" style="stroke:#181818;stroke-width:1;"/><line style="stroke:#181818;stroke-width:1;" x1="268.4355" x2="268.4355" y1="883.1367" y2="903.1367"/><polygon fill="#181818" points="264.4355,893.1367,268.4355,903.1367,272.4355,893.1367,268.4355,897.1367" style="stroke:#181818;stroke-width:1;"/><line style="stroke:#181818;stroke-width:1;" x1="268.4355" x2="268.4355" y1="766.7969" y2="786.7969"/><polygon fill="#181818" points="264.4355,776.7969,268.4355,786.7969,272.4355,776.7969,268.4355,780.7969" style="stroke:#181818;stroke-width:1;"/><line style="stroke:#181818;stroke-width:1;" x1="268.4355" x2="268.4355" y1="927.1367" y2="947.1367"/><polygon fill="#181818" points="264.4355,937.1367,268.4355,947.1367,272.4355,937.1367,268.4355,941.1367" style="stroke:#181818;stroke-width:1;"/><line style="stroke:#181818;stroke-width:1;" x1="268.4355" x2="268.4355" y1="1023.0117" y2="1043.0117"/><polygon fill="#181818" points="264.4355,1033.0117,268.4355,1043.0117,272.4355,1033.0117,268.4355,1037.0117" style="stroke:#181818;stroke-width:1;"/><line style="stroke:#181818;stroke-width:1;" x1="268.4355" x2="268.4355" y1="1090.9492" y2="1110.9492"/><polygon fill="#181818" points="264.4355,1100.9492,268.4355,1110.9492,272.4355,1100.9492,268.4355,1104.9492" style="stroke:#181818;stroke-width:1;"/><!--SRC=[TLF1Rk8m4BtdA-O8Y7OlUwA75Gk8mnOLRRhB1GaDoGJSsfx8dgJDt-yu0OGgRIwExJTlvhsNY15BC9ai5uVQDl6nxgOmByIqHZhOSNYlB7zC9baM1ODasUoPiGJZwqQWCfRYtez-hJVFy0tod_qo__Fw0elyx_WfcsqnH89OKs4eJY4GAZNxEDrxz2LmdNPeeSQ0ZeH2rAA50YGqXK0KDiNPi5u5Ku13NJw7qYlLmVYAjMYPgftn10Kxn_xQTE-F91z47euiP_2wKL7Q9ZCLZ9QTHvUOkQGVOv2puaOlozKu0trckN6DHI7G8oW7R18SsRPqC6sjSkC5St25AYQhUaThOzMPsj25PnN5kCJJicqSGSK1ydp-DDp-RZpSAc33NkXXWS5owdHbFrq1skU0ZN1gvajJQIIhJmdgnaNvmqKvwE4R5S91DxsjJaEZDB2n65A-Wwz9qV9rDuLDlfh2bZGpzM_18MYFJ6Tz7-RSMfOlfEaIy8J6tq6k_S-4uh3-7unR2XOxuEek5PK4VSS-dhbFjcdAG1wFbifRHXt5YxThyXIIjzY3gOJDzhigkd3UOhlpQnuZEQNJZoWsLk9ixn-WrfbYUhcPecSKRcx6WaFluqwjKnSRvp1qZs_grV15Hcnr26j1npWbfFuoNFy3]--></g></svg>