<svg xmlns="http://www.w3.org/2000/svg" xmlns:xlink="http://www.w3.org/1999/xlink" contentStyleType="text/css" data-diagram-type="SEQUENCE" height="841px" preserveAspectRatio="none" style="width:809px;height:841px;background:#FFFFFF;" version="1.1" viewBox="0 0 809 841" width="809px" zoomAndPan="magnify"><title>**Pipeline **</title><defs/><g><text fill="#000000" font-family="sans-serif" font-size="14" font-weight="bold" lengthAdjust="spacing" textLength="63.6357" x="366.5737" y="27.9951">Pipeline</text><g><title>User</title><rect fill="#000000" fill-opacity="0.00000" height="641.9219" width="8" x="19.9551" y="118.5938"/><line style="stroke:#181818;stroke-width:0.5;stroke-dasharray:5,5;" x1="23" x2="23" y1="118.5938" y2="760.5156"/></g><g><title>run_all.py</title><rect fill="#000000" fill-opacity="0.00000" height="641.9219" width="8" x="208.2959" y="118.5938"/><line style="stroke:#181818;stroke-width:0.5;stroke-dasharray:5,5;" x1="212.0547" x2="212.0547" y1="118.5938" y2="760.5156"/></g><g><title>topology_compare.py</title><rect fill="#000000" fill-opacity="0.00000" height="641.9219" width="8" x="380.4121" y="118.5938"/><line style="stroke:#181818;stroke-width:0.5;stroke-dasharray:5,5;" x1="383.6665" x2="383.6665" y1="118.5938" y2="760.5156"/></g><g><title>DC_plus.py</title><rect fill="#000000" fill-opacity="0.00000" height="641.9219" width="8" x="593.481" y="118.5938"/><line style="stroke:#181818;stroke-width:0.5;stroke-dasharray:5,5;" x1="597.4204" x2="597.4204" y1="118.5938" y2="760.5156"/></g><g><title>Filesystem</title><rect fill="#000000" fill-opacity="0.00000" height="641.9219" width="8" x="753.1279" y="118.5938"/><line style="stroke:#181818;stroke-width:0.5;stroke-dasharray:5,5;" x1="756.5986" x2="756.5986" y1="118.5938" y2="760.5156"/></g><g class="participant participant-head" data-participant="User"><text fill="#000000" font-family="sans-serif" font-size="14" lengthAdjust="spacing" textLength="31.9102" x="5" y="115.292">User</text><ellipse cx="23.9551" cy="50.7969" fill="#E2E2F0" rx="8" ry="8" style="stroke:#181818;stroke-width:0.5;"/><path d="M23.9551,58.7969 L23.9551,85.7969 M10.9551,66.7969 L36.9551,66.7969 M23.9551,85.7969 L10.9551,100.7969 M23.9551,85.7969 L36.9551,100.7969" fill="none" style="stroke:#181818;stroke-width:0.5;"/></g><g class="participant participant-tail" data-participant="User"><text fill="#000000" font-family="sans-serif" font-size="14" lengthAdjust="spacing" textLength="31.9102" x="5" y="772.5107">User</text><ellipse cx="23.9551" cy="784.3125" fill="#E2E2F0" rx="8" ry="8" style="stroke:#181818;stroke-width:0.5;"/><path d="M23.9551,792.3125 L23.9551,819.3125 M10.9551,800.3125 L36.9551,800.3125 M23.9551,819.3125 L10.9551,834.3125 M23.9551,819.3125 L36.9551,834.3125" fill="none" style="stroke:#181818;stroke-width:0.5;"/></g><g class="participant participant-head" data-participant="run_all"><rect fill="#E2E2F0" height="30.2969" rx="2.5" ry="2.5" style="stroke:#181818;stroke-width:0.5;" width="82.4824" x="171.0547" y="87.2969"/><text fill="#000000" font-family="sans-serif" font-size="14" lengthAdjust="spacing" textLength="68.4824" x="178.0547" y="107.292">run_all.py</text></g><g class="participant participant-tail" data-participant="run_all"><rect fill="#E2E2F0" height="30.2969" rx="2.5" ry="2.5" style="stroke:#181818;stroke-width:0.5;" width="82.4824" x="171.0547" y="759.5156"/><text fill="#000000" font-family="sans-serif" font-size="14" lengthAdjust="spacing" textLength="68.4824" x="178.0547" y="779.5107">run_all.py</text></g><g class="participant participant-head" data-participant="topology"><rect fill="#E2E2F0" height="30.2969" rx="2.5" ry="2.5" style="stroke:#181818;stroke-width:0.5;" width="165.4912" x="301.6665" y="87.2969"/><text fill="#000000" font-family="sans-serif" font-size="14" lengthAdjust="spacing" textLength="151.4912" x="308.6665" y="107.292">topology_compare.py</text></g><g class="participant participant-tail" data-participant="topology"><rect fill="#E2E2F0" height="30.2969" rx="2.5" ry="2.5" style="stroke:#181818;stroke-width:0.5;" width="165.4912" x="301.6665" y="759.5156"/><text fill="#000000" font-family="sans-serif" font-size="14" lengthAdjust="spacing" textLength="151.4912" x="308.6665" y="779.5107">topology_compare.py</text></g><g class="participant participant-head" data-participant="dcplus"><rect fill="#E2E2F0" height="30.2969" rx="2.5" ry="2.5" style="stroke:#181818;stroke-width:0.5;" width="92.1211" x="551.4204" y="87.2969"/><text fill="#000000" font-family="sans-serif" font-size="14" lengthAdjust="spacing" textLength="78.1211" x="558.4204" y="107.292">DC_plus.py</text></g><g class="participant participant-tail" data-participant="dcplus"><rect fill="#E2E2F0" height="30.2969" rx="2.5" ry="2.5" style="stroke:#181818;stroke-width:0.5;" width="92.1211" x="551.4204" y="759.5156"/><text fill="#000000" font-family="sans-serif" font-size="14" lengthAdjust="spacing" textLength="78.1211" x="558.4204" y="779.5107">DC_plus.py</text></g><g class="participant participant-head" data-participant="FS"><text fill="#000000" font-family="sans-serif" font-size="14" lengthAdjust="spacing" textLength="75.0586" x="716.5986" y="115.292">Filesystem</text><path d="M739.1279,66.2969 C739.1279,56.2969 757.1279,56.2969 757.1279,56.2969 C757.1279,56.2969 775.1279,56.2969 775.1279,66.2969 L775.1279,92.2969 C775.1279,102.2969 757.1279,102.2969 757.1279,102.2969 C757.1279,102.2969 739.1279,102.2969 739.1279,92.2969 L739.1279,66.2969" fill="#E2E2F0" style="stroke:#181818;stroke-width:0.5;"/><path d="M739.1279,66.2969 C739.1279,76.2969 757.1279,76.2969 757.1279,76.2969 C757.1279,76.2969 775.1279,76.2969 775.1279,66.2969" fill="none" style="stroke:#181818;stroke-width:0.5;"/></g><g class="participant participant-tail" data-participant="FS"><text fill="#000000" font-family="sans-serif" font-size="14" lengthAdjust="spacing" textLength="75.0586" x="716.5986" y="772.5107">Filesystem</text><path d="M739.1279,785.8125 C739.1279,775.8125 757.1279,775.8125 757.1279,775.8125 C757.1279,775.8125 775.1279,775.8125 775.1279,785.8125 L775.1279,811.8125 C775.1279,821.8125 757.1279,821.8125 757.1279,821.8125 C757.1279,821.8125 739.1279,821.8125 739.1279,811.8125 L739.1279,785.8125" fill="#E2E2F0" style="stroke:#181818;stroke-width:0.5;"/><path d="M739.1279,785.8125 C739.1279,795.8125 757.1279,795.8125 757.1279,795.8125 C757.1279,795.8125 775.1279,795.8125 775.1279,785.8125" fill="none" style="stroke:#181818;stroke-width:0.5;"/></g><g class="message" data-participant-1="User" data-participant-2="run_all"><polygon fill="#181818" points="200.2959,160.8594,210.2959,164.8594,200.2959,168.8594,204.2959,164.8594" style="stroke:#181818;stroke-width:1;"/><line style="stroke:#181818;stroke-width:1;" x1="23.9551" x2="206.2959" y1="164.8594" y2="164.8594"/><text fill="#000000" font-family="sans-serif" font-size="13" lengthAdjust="spacing" textLength="84.1001" x="30.9551" y="144.6606">Execute with</text><text fill="#000000" font-family="sans-serif" font-size="13" lengthAdjust="spacing" textLength="160.2085" x="35.0874" y="159.7935">graphA graphB [--outdir]</text></g><g class="message" data-participant-1="run_all" data-participant-2="FS"><polygon fill="#181818" points="745.1279,189.9922,755.1279,193.9922,745.1279,197.9922,749.1279,193.9922" style="stroke:#181818;stroke-width:1;"/><line style="stroke:#181818;stroke-width:1;" x1="212.2959" x2="751.1279" y1="193.9922" y2="193.9922"/><text fill="#000000" font-family="sans-serif" font-size="13" lengthAdjust="spacing" textLength="197.9326" x="219.2959" y="188.9263">Create outputs/&lt;timestamp&gt;/</text></g><rect fill="#EEEEEE" height="3" style="stroke:#EEEEEE;stroke-width:1;" width="802.6572" x="0" y="222.5586"/><line style="stroke:#000000;stroke-width:1;" x1="0" x2="802.6572" y1="222.5586" y2="222.5586"/><line style="stroke:#000000;stroke-width:1;" x1="0" x2="802.6572" y1="225.5586" y2="225.5586"/><rect fill="#EEEEEE" height="23.1328" style="stroke:#000000;stroke-width:2;" width="180.4927" x="311.0823" y="211.9922"/><text fill="#000000" font-family="sans-serif" font-size="13" font-weight="bold" lengthAdjust="spacing" textLength="161.9668" x="317.0823" y="228.0591">Topology Phase (TDA)</text><g class="message" data-participant-1="run_all" data-participant-2="topology"><polygon fill="#181818" points="372.4121,262.2578,382.4121,266.2578,372.4121,270.2578,376.4121,266.2578" style="stroke:#181818;stroke-width:1;"/><line style="stroke:#181818;stroke-width:1;" x1="212.2959" x2="378.4121" y1="266.2578" y2="266.2578"/><text fill="#000000" font-family="sans-serif" font-size="13" lengthAdjust="spacing" textLength="148.1162" x="219.2959" y="261.1919">Launch via subprocess</text></g><g class="message" data-participant-1="topology" data-participant-2="topology"><line style="stroke:#181818;stroke-width:1;" x1="384.4121" x2="426.4121" y1="310.5234" y2="310.5234"/><line style="stroke:#181818;stroke-width:1;" x1="426.4121" x2="426.4121" y1="310.5234" y2="323.5234"/><line style="stroke:#181818;stroke-width:1;" x1="385.4121" x2="426.4121" y1="323.5234" y2="323.5234"/><polygon fill="#181818" points="395.4121,319.5234,385.4121,323.5234,395.4121,327.5234,391.4121,323.5234" style="stroke:#181818;stroke-width:1;"/><text fill="#000000" font-family="sans-serif" font-size="13" lengthAdjust="spacing" textLength="103.2065" x="391.4121" y="290.3247">Load KGML/CSV</text><text fill="#000000" font-family="sans-serif" font-size="13" lengthAdjust="spacing" textLength="109.5161" x="391.4121" y="305.4575">and build graphs</text></g><g class="message" data-participant-1="topology" data-participant-2="topology"><line style="stroke:#181818;stroke-width:1;" x1="384.4121" x2="426.4121" y1="367.7891" y2="367.7891"/><line style="stroke:#181818;stroke-width:1;" x1="426.4121" x2="426.4121" y1="367.7891" y2="380.7891"/><line style="stroke:#181818;stroke-width:1;" x1="385.4121" x2="426.4121" y1="380.7891" y2="380.7891"/><polygon fill="#181818" points="395.4121,376.7891,385.4121,380.7891,395.4121,384.7891,391.4121,380.7891" style="stroke:#181818;stroke-width:1;"/><text fill="#000000" font-family="sans-serif" font-size="13" lengthAdjust="spacing" textLength="59.2808" x="391.4121" y="347.5903">Compute</text><text fill="#000000" font-family="sans-serif" font-size="13" lengthAdjust="spacing" textLength="199.0688" x="391.4121" y="362.7231">SP matrix &#8594; ripser &#8594; diagrams</text></g><g class="message" data-participant-1="topology" data-participant-2="FS"><polygon fill="#181818" points="745.1279,421.0547,755.1279,425.0547,745.1279,429.0547,749.1279,425.0547" style="stroke:#181818;stroke-width:1;"/><line style="stroke:#181818;stroke-width:1;" x1="384.4121" x2="751.1279" y1="425.0547" y2="425.0547"/><text fill="#000000" font-family="sans-serif" font-size="13" lengthAdjust="spacing" textLength="114.2832" x="391.4121" y="404.856">Save TDA images</text><text fill="#000000" font-family="sans-serif" font-size="13" lengthAdjust="spacing" textLength="107.0786" x="391.4121" y="419.9888">+ summary.json</text></g><rect fill="#EEEEEE" height="3" style="stroke:#EEEEEE;stroke-width:1;" width="802.6572" x="0" y="453.6211"/><line style="stroke:#000000;stroke-width:1;" x1="0" x2="802.6572" y1="453.6211" y2="453.6211"/><line style="stroke:#000000;stroke-width:1;" x1="0" x2="802.6572" y1="456.6211" y2="456.6211"/><rect fill="#EEEEEE" height="23.1328" style="stroke:#000000;stroke-width:2;" width="227.6177" x="287.5198" y="443.0547"/><text fill="#000000" font-family="sans-serif" font-size="13" font-weight="bold" lengthAdjust="spacing" textLength="209.0918" x="293.5198" y="459.1216">Dynamics Phase (ODE / SSA)</text><g class="message" data-participant-1="run_all" data-participant-2="dcplus"><polygon fill="#181818" points="585.481,493.3203,595.481,497.3203,585.481,501.3203,589.481,497.3203" style="stroke:#181818;stroke-width:1;"/><line style="stroke:#181818;stroke-width:1;" x1="212.2959" x2="591.481" y1="497.3203" y2="497.3203"/><text fill="#000000" font-family="sans-serif" font-size="13" lengthAdjust="spacing" textLength="148.1162" x="219.2959" y="492.2544">Launch via subprocess</text></g><g class="message" data-participant-1="dcplus" data-participant-2="dcplus"><line style="stroke:#181818;stroke-width:1;" x1="597.481" x2="639.481" y1="541.5859" y2="541.5859"/><line style="stroke:#181818;stroke-width:1;" x1="639.481" x2="639.481" y1="541.5859" y2="554.5859"/><line style="stroke:#181818;stroke-width:1;" x1="598.481" x2="639.481" y1="554.5859" y2="554.5859"/><polygon fill="#181818" points="608.481,550.5859,598.481,554.5859,608.481,558.5859,604.481,554.5859" style="stroke:#181818;stroke-width:1;"/><text fill="#000000" font-family="sans-serif" font-size="13" lengthAdjust="spacing" textLength="66.625" x="604.481" y="521.3872">Parse files</text><text fill="#000000" font-family="sans-serif" font-size="13" lengthAdjust="spacing" textLength="145.647" x="604.481" y="536.52">and reaction networks</text></g><g class="message" data-participant-1="dcplus" data-participant-2="dcplus"><line style="stroke:#181818;stroke-width:1;" x1="597.481" x2="639.481" y1="598.8516" y2="598.8516"/><line style="stroke:#181818;stroke-width:1;" x1="639.481" x2="639.481" y1="598.8516" y2="611.8516"/><line style="stroke:#181818;stroke-width:1;" x1="598.481" x2="639.481" y1="611.8516" y2="611.8516"/><polygon fill="#181818" points="608.481,607.8516,598.481,611.8516,608.481,615.8516,604.481,611.8516" style="stroke:#181818;stroke-width:1;"/><text fill="#000000" font-family="sans-serif" font-size="13" lengthAdjust="spacing" textLength="118.9551" x="604.481" y="578.6528">Build ODEs or SSA</text><text fill="#000000" font-family="sans-serif" font-size="13" lengthAdjust="spacing" textLength="99.0425" x="604.481" y="593.7856">(simulate / MC)</text></g><g class="message" data-participant-1="dcplus" data-participant-2="dcplus"><line style="stroke:#181818;stroke-width:1;" x1="597.481" x2="639.481" y1="656.1172" y2="656.1172"/><line style="stroke:#181818;stroke-width:1;" x1="639.481" x2="639.481" y1="656.1172" y2="669.1172"/><line style="stroke:#181818;stroke-width:1;" x1="598.481" x2="639.481" y1="669.1172" y2="669.1172"/><polygon fill="#181818" points="608.481,665.1172,598.481,669.1172,608.481,673.1172,604.481,669.1172" style="stroke:#181818;stroke-width:1;"/><text fill="#000000" font-family="sans-serif" font-size="13" lengthAdjust="spacing" textLength="123.3984" x="604.481" y="635.9185">Compute similarity</text><text fill="#000000" font-family="sans-serif" font-size="13" lengthAdjust="spacing" textLength="112.8804" x="604.481" y="651.0513">(DTW, MSE, Corr)</text></g><g class="message" data-participant-1="dcplus" data-participant-2="FS"><polygon fill="#181818" points="745.1279,709.3828,755.1279,713.3828,745.1279,717.3828,749.1279,713.3828" style="stroke:#181818;stroke-width:1;"/><line style="stroke:#181818;stroke-width:1;" x1="597.481" x2="751.1279" y1="713.3828" y2="713.3828"/><text fill="#000000" font-family="sans-serif" font-size="13" lengthAdjust="spacing" textLength="134.2085" x="604.481" y="693.1841">Save dynamics plots</text><text fill="#000000" font-family="sans-serif" font-size="13" lengthAdjust="spacing" textLength="107.0786" x="604.481" y="708.3169">+ summary.json</text></g><g class="message" data-participant-1="run_all" data-participant-2="User"><polygon fill="#181818" points="34.9551,738.5156,24.9551,742.5156,34.9551,746.5156,30.9551,742.5156" style="stroke:#181818;stroke-width:1;"/><line style="stroke:#181818;stroke-width:1;stroke-dasharray:2,2;" x1="28.9551" x2="211.2959" y1="742.5156" y2="742.5156"/><text fill="#000000" font-family="sans-serif" font-size="13" lengthAdjust="spacing" textLength="139.7183" x="40.9551" y="737.4497">Print output directory</text></g><!--SRC=[TLFBRjj03BphAmYVaZIExaOT897i7XgZ1kIsXoemQ6bZizqNTbT9z0FzW7vYloHSoJ9in3c90cU8cI4tK902hgwMP8Ka7SiamIeO1z-zS8b55wWYYpg0Q_GQfGJqCDhNDxOTdM22iKQQRTk1XfzrPHI3n3jqNLdP-0wRP-jOTv0Q0sxG2vWNNMzEKlZM1w56IH9bmVXsK3E1sQkecY3WXSAkrB1rQ7Tt_USUVet7fWarkSTaaC_SUJ61p0ba5dTj4tpwEP0IFg2ojscIJAUm6fmiTr7AnIg_kuJfz7ZCu6y23zZeQWVFXE2RZNMc4judXp1EiGPh-FfbyP1cnOzIewvXqv2iUyaViJAEa5sMkbY2mk3e5Vx__GUERCmZbZKXJr2d0wBJ0fy5i7mWXLlXI_s9HIg5hhtvxOtktEQjHaML7zn-osUGGb6yyzolx2F7-uKUuPReUDvJt63lbMEl0XaDMeGNu_wS8zrtUR063to8hABK5vvK8-F6KbXabsT8-uI0WIJHKMYPbQz-NiEYc5rpsxbZsY6PUh1kfGbdqZcOPr8yFlRaY8-tlnoEtOduNjet]--></g></svg>