<svg xmlns="http://www.w3.org/2000/svg" xmlns:xlink="http://www.w3.org/1999/xlink" contentStyleType="text/css" data-diagram-type="DESCRIPTION" height="362px" preserveAspectRatio="none" style="width:1046px;height:362px;background:#FFFFFF;" version="1.1" viewBox="0 0 1046 362" width="1046px" zoomAndPan="magnify"><title>**Requirements**</title><defs/><g><g class="title" data-source-line="1"><text fill="#000000" font-family="sans-serif" font-size="14" font-weight="bold" lengthAdjust="spacing" textLength="110.5371" x="461.0107" y="22.9951">Requirements</text></g><!--cluster mpi_cbg.scripts--><g class="cluster" data-entity="mpi_cbg.scripts" data-source-line="3" data-uid="ent0002" id="cluster_mpi_cbg.scripts"><path d="M290,43.2969 L414.4502,43.2969 A3.75,3.75 0 0 1 416.9502,45.7969 L423.9502,65.5938 L662,65.5938 A2.5,2.5 0 0 1 664.5,68.0938 L664.5,260.7969 A2.5,2.5 0 0 1 662,263.2969 L290,263.2969 A2.5,2.5 0 0 1 287.5,260.7969 L287.5,45.7969 A2.5,2.5 0 0 1 290,43.2969" fill="none" style="stroke:#000000;stroke-width:1.5;"/><line style="stroke:#000000;stroke-width:1.5;" x1="287.5" x2="423.9502" y1="65.5938" y2="65.5938"/><text fill="#000000" font-family="sans-serif" font-size="14" font-weight="bold" lengthAdjust="spacing" textLength="123.4502" x="291.5" y="58.292">mpi_cbg.scripts</text></g><!--entity RunAll--><g class="entity" data-entity="RunAll" data-source-line="4" data-uid="ent0003" id="entity_RunAll"><rect fill="#F1F1F1" height="46.2969" rx="2.5" ry="2.5" style="stroke:#181818;stroke-width:0.5;" width="108.4824" x="382.5" y="78.2969"/><rect fill="#F1F1F1" height="10" style="stroke:#181818;stroke-width:0.5;" width="15" x="470.9824" y="83.2969"/><rect fill="#F1F1F1" height="2" style="stroke:#181818;stroke-width:0.5;" width="4" x="468.9824" y="85.2969"/><rect fill="#F1F1F1" height="2" style="stroke:#181818;stroke-width:0.5;" width="4" x="468.9824" y="89.2969"/><text fill="#000000" font-family="sans-serif" font-size="14" lengthAdjust="spacing" textLength="68.4824" x="397.5" y="111.292">run_all.py</text></g><!--entity Topology--><g class="entity" data-entity="Topology" data-source-line="5" data-uid="ent0004" id="entity_Topology"><rect fill="#F1F1F1" height="46.2969" rx="2.5" ry="2.5" style="stroke:#181818;stroke-width:0.5;" width="191.4912" x="304" y="201.2969"/><rect fill="#F1F1F1" height="10" style="stroke:#181818;stroke-width:0.5;" width="15" x="475.4912" y="206.2969"/><rect fill="#F1F1F1" height="2" style="stroke:#181818;stroke-width:0.5;" width="4" x="473.4912" y="208.2969"/><rect fill="#F1F1F1" height="2" style="stroke:#181818;stroke-width:0.5;" width="4" x="473.4912" y="212.2969"/><text fill="#000000" font-family="sans-serif" font-size="14" lengthAdjust="spacing" textLength="151.4912" x="319" y="234.292">topology_compare.py</text></g><!--entity DCPlus--><g class="entity" data-entity="DCPlus" data-source-line="6" data-uid="ent0005" id="entity_DCPlus"><rect fill="#F1F1F1" height="46.2969" rx="2.5" ry="2.5" style="stroke:#181818;stroke-width:0.5;" width="118.1211" x="530.5" y="201.2969"/><rect fill="#F1F1F1" height="10" style="stroke:#181818;stroke-width:0.5;" width="15" x="628.6211" y="206.2969"/><rect fill="#F1F1F1" height="2" style="stroke:#181818;stroke-width:0.5;" width="4" x="626.6211" y="208.2969"/><rect fill="#F1F1F1" height="2" style="stroke:#181818;stroke-width:0.5;" width="4" x="626.6211" y="212.2969"/><text fill="#000000" font-family="sans-serif" font-size="14" lengthAdjust="spacing" textLength="78.1211" x="545.5" y="234.292">DC_plus.py</text></g><!--entity NX--><g class="entity" data-entity="NX" data-source-line="13" data-uid="ent0008" id="entity_NX"><rect fill="#F1F1F1" height="46.2969" rx="2.5" ry="2.5" style="stroke:#181818;stroke-width:0.5;" width="105.1396" x="7" y="310.2969"/><rect fill="#F1F1F1" height="10" style="stroke:#181818;stroke-width:0.5;" width="15" x="92.1396" y="315.2969"/><rect fill="#F1F1F1" height="2" style="stroke:#181818;stroke-width:0.5;" width="4" x="90.1396" y="317.2969"/><rect fill="#F1F1F1" height="2" style="stroke:#181818;stroke-width:0.5;" width="4" x="90.1396" y="321.2969"/><text fill="#000000" font-family="sans-serif" font-size="14" lengthAdjust="spacing" textLength="65.1396" x="22" y="343.292">networkx</text></g><!--entity PD--><g class="entity" data-entity="PD" data-source-line="14" data-uid="ent0009" id="entity_PD"><rect fill="#F1F1F1" height="46.2969" rx="2.5" ry="2.5" style="stroke:#181818;stroke-width:0.5;" width="91.0986" x="147" y="310.2969"/><rect fill="#F1F1F1" height="10" style="stroke:#181818;stroke-width:0.5;" width="15" x="218.0986" y="315.2969"/><rect fill="#F1F1F1" height="2" style="stroke:#181818;stroke-width:0.5;" width="4" x="216.0986" y="317.2969"/><rect fill="#F1F1F1" height="2" style="stroke:#181818;stroke-width:0.5;" width="4" x="216.0986" y="321.2969"/><text fill="#000000" font-family="sans-serif" font-size="14" lengthAdjust="spacing" textLength="51.0986" x="162" y="343.292">pandas</text></g><!--entity Ripser--><g class="entity" data-entity="Ripser" data-source-line="15" data-uid="ent0010" id="entity_Ripser"><rect fill="#F1F1F1" height="46.2969" rx="2.5" ry="2.5" style="stroke:#181818;stroke-width:0.5;" width="80.1953" x="273.5" y="310.2969"/><rect fill="#F1F1F1" height="10" style="stroke:#181818;stroke-width:0.5;" width="15" x="333.6953" y="315.2969"/><rect fill="#F1F1F1" height="2" style="stroke:#181818;stroke-width:0.5;" width="4" x="331.6953" y="317.2969"/><rect fill="#F1F1F1" height="2" style="stroke:#181818;stroke-width:0.5;" width="4" x="331.6953" y="321.2969"/><text fill="#000000" font-family="sans-serif" font-size="14" lengthAdjust="spacing" textLength="40.1953" x="288.5" y="343.292">ripser</text></g><!--entity Persim--><g class="entity" data-entity="Persim" data-source-line="16" data-uid="ent0011" id="entity_Persim"><rect fill="#F1F1F1" height="46.2969" rx="2.5" ry="2.5" style="stroke:#181818;stroke-width:0.5;" width="88.0771" x="388.5" y="310.2969"/><rect fill="#F1F1F1" height="10" style="stroke:#181818;stroke-width:0.5;" width="15" x="456.5771" y="315.2969"/><rect fill="#F1F1F1" height="2" style="stroke:#181818;stroke-width:0.5;" width="4" x="454.5771" y="317.2969"/><rect fill="#F1F1F1" height="2" style="stroke:#181818;stroke-width:0.5;" width="4" x="454.5771" y="321.2969"/><text fill="#000000" font-family="sans-serif" font-size="14" lengthAdjust="spacing" textLength="48.0771" x="403.5" y="343.292">persim</text></g><!--entity NP--><g class="entity" data-entity="NP" data-source-line="24" data-uid="ent0016" id="entity_NP"><rect fill="#F1F1F1" height="46.2969" rx="2.5" ry="2.5" style="stroke:#181818;stroke-width:0.5;" width="88.5557" x="512" y="310.2969"/><rect fill="#F1F1F1" height="10" style="stroke:#181818;stroke-width:0.5;" width="15" x="580.5557" y="315.2969"/><rect fill="#F1F1F1" height="2" style="stroke:#181818;stroke-width:0.5;" width="4" x="578.5557" y="317.2969"/><rect fill="#F1F1F1" height="2" style="stroke:#181818;stroke-width:0.5;" width="4" x="578.5557" y="321.2969"/><text fill="#000000" font-family="sans-serif" font-size="14" lengthAdjust="spacing" textLength="48.5557" x="527" y="343.292">numpy</text></g><!--entity SciPy--><g class="entity" data-entity="SciPy" data-source-line="25" data-uid="ent0017" id="entity_SciPy"><rect fill="#F1F1F1" height="46.2969" rx="2.5" ry="2.5" style="stroke:#181818;stroke-width:0.5;" width="76.0527" x="636.5" y="310.2969"/><rect fill="#F1F1F1" height="10" style="stroke:#181818;stroke-width:0.5;" width="15" x="692.5527" y="315.2969"/><rect fill="#F1F1F1" height="2" style="stroke:#181818;stroke-width:0.5;" width="4" x="690.5527" y="317.2969"/><rect fill="#F1F1F1" height="2" style="stroke:#181818;stroke-width:0.5;" width="4" x="690.5527" y="321.2969"/><text fill="#000000" font-family="sans-serif" font-size="14" lengthAdjust="spacing" textLength="36.0527" x="651.5" y="343.292">scipy</text></g><!--entity MPL--><g class="entity" data-entity="MPL" data-source-line="26" data-uid="ent0018" id="entity_MPL"><rect fill="#F1F1F1" height="46.2969" rx="2.5" ry="2.5" style="stroke:#181818;stroke-width:0.5;" width="111.2031" x="748" y="310.2969"/><rect fill="#F1F1F1" height="10" style="stroke:#181818;stroke-width:0.5;" width="15" x="839.2031" y="315.2969"/><rect fill="#F1F1F1" height="2" style="stroke:#181818;stroke-width:0.5;" width="4" x="837.2031" y="317.2969"/><rect fill="#F1F1F1" height="2" style="stroke:#181818;stroke-width:0.5;" width="4" x="837.2031" y="321.2969"/><text fill="#000000" font-family="sans-serif" font-size="14" lengthAdjust="spacing" textLength="71.2031" x="763" y="343.292">matplotlib</text></g><!--entity NX2--><g class="entity" data-entity="NX2" data-source-line="27" data-uid="ent0019" id="entity_NX2"><rect fill="#F1F1F1" height="46.2969" rx="2.5" ry="2.5" style="stroke:#181818;stroke-width:0.5;" width="146.5586" x="894" y="310.2969"/><rect fill="#F1F1F1" height="10" style="stroke:#181818;stroke-width:0.5;" width="15" x="1020.5586" y="315.2969"/><rect fill="#F1F1F1" height="2" style="stroke:#181818;stroke-width:0.5;" width="4" x="1018.5586" y="317.2969"/><rect fill="#F1F1F1" height="2" style="stroke:#181818;stroke-width:0.5;" width="4" x="1018.5586" y="321.2969"/><text fill="#000000" font-family="sans-serif" font-size="14" lengthAdjust="spacing" textLength="106.5586" x="909" y="343.292">networkx (dyn)</text></g><!--link RunAll to Topology--><g class="link" data-entity-1="RunAll" data-entity-2="Topology" data-source-line="9" data-uid="lnk6" id="link_RunAll_Topology"><path d="M382.34,119.6469 C366.36,127.5769 350.7,138.7669 341.5,154.2969 C331.45,171.2569 340.5875,184.5743 357.2875,197.4443" fill="none" id="RunAll-to-Topology" style="stroke:#181818;stroke-width:1;"/><polygon fill="#181818" points="362.04,201.1069,357.353,192.4448,358.0796,198.0548,352.4696,198.7814,362.04,201.1069" style="stroke:#181818;stroke-width:1;"/><text fill="#000000" font-family="sans-serif" font-size="13" lengthAdjust="spacing" textLength="130.1523" x="342.5" y="167.3638">calls via subprocess</text></g><!--link RunAll to DCPlus--><g class="link" data-entity-1="RunAll" data-entity-2="DCPlus" data-source-line="10" data-uid="lnk7" id="link_RunAll_DCPlus"><path d="M464.56,124.4869 C492.17,146.3269 529.364,175.7348 556.914,197.5248" fill="none" id="RunAll-to-DCPlus" style="stroke:#181818;stroke-width:1;"/><polygon fill="#181818" points="561.62,201.2469,557.0424,192.5265,557.6984,198.1451,552.0797,198.8011,561.62,201.2469" style="stroke:#181818;stroke-width:1;"/><text fill="#000000" font-family="sans-serif" font-size="13" lengthAdjust="spacing" textLength="130.1523" x="523.5" y="167.3638">calls via subprocess</text></g><!--link Topology to NX--><g class="link" data-entity-1="Topology" data-entity-2="NX" data-source-line="18" data-uid="lnk12" id="link_Topology_NX"><path d="M329.46,247.3369 C264.92,267.6469 176.2932,295.5354 117.9332,313.9054" fill="none" id="Topology-to-NX" style="stroke:#181818;stroke-width:1;"/><polygon fill="#181818" points="112.21,315.7069,121.9957,316.8201,116.9793,314.2056,119.5938,309.1892,112.21,315.7069" style="stroke:#181818;stroke-width:1;"/></g><!--link Topology to PD--><g class="link" data-entity-1="Topology" data-entity-2="PD" data-source-line="19" data-uid="lnk13" id="link_Topology_PD"><path d="M356.86,247.3369 C321.24,265.7569 276.0199,289.1214 240.4099,307.5314" fill="none" id="Topology-to-PD" style="stroke:#181818;stroke-width:1;"/><polygon fill="#181818" points="235.08,310.2869,244.9118,309.7069,239.5215,307.9906,241.2378,302.6004,235.08,310.2869" style="stroke:#181818;stroke-width:1;"/></g><!--link Topology to Ripser--><g class="link" data-entity-1="Topology" data-entity-2="Ripser" data-source-line="20" data-uid="lnk14" id="link_Topology_Ripser"><path d="M381.68,247.4669 C366.92,265.8269 349.8078,287.1194 335.0578,305.4794" fill="none" id="Topology-to-Ripser" style="stroke:#181818;stroke-width:1;"/><polygon fill="#181818" points="331.3,310.1569,340.055,305.6458,334.4315,306.259,333.8184,300.6354,331.3,310.1569" style="stroke:#181818;stroke-width:1;"/></g><!--link Topology to Persim--><g class="link" data-entity-1="Topology" data-entity-2="Persim" data-source-line="21" data-uid="lnk15" id="link_Topology_Persim"><path d="M406.34,247.4669 C412,265.8269 418.2424,286.0631 423.9024,304.4231" fill="none" id="Topology-to-Persim" style="stroke:#181818;stroke-width:1;"/><polygon fill="#181818" points="425.67,310.1569,426.8411,300.3779,424.197,305.3788,419.1961,302.7347,425.67,310.1569" style="stroke:#181818;stroke-width:1;"/></g><!--link DCPlus to NP--><g class="link" data-entity-1="DCPlus" data-entity-2="NP" data-source-line="29" data-uid="lnk20" id="link_DCPlus_NP"><path d="M582.66,247.4669 C577,265.8269 570.7576,286.0631 565.0976,304.4231" fill="none" id="DCPlus-to-NP" style="stroke:#181818;stroke-width:1;"/><polygon fill="#181818" points="563.33,310.1569,569.8039,302.7347,564.803,305.3788,562.1589,300.3779,563.33,310.1569" style="stroke:#181818;stroke-width:1;"/></g><!--link DCPlus to SciPy--><g class="link" data-entity-1="DCPlus" data-entity-2="SciPy" data-source-line="30" data-uid="lnk21" id="link_DCPlus_SciPy"><path d="M607.11,247.4669 C621.7,265.8269 638.5987,287.0982 653.1787,305.4582" fill="none" id="DCPlus-to-SciPy" style="stroke:#181818;stroke-width:1;"/><polygon fill="#181818" points="656.91,310.1569,654.4455,300.6213,653.8006,306.2413,648.1806,305.5964,656.91,310.1569" style="stroke:#181818;stroke-width:1;"/></g><!--link DCPlus to MPL--><g class="link" data-entity-1="DCPlus" data-entity-2="MPL" data-source-line="31" data-uid="lnk22" id="link_DCPlus_MPL"><path d="M633.58,247.3369 C670.41,265.7569 717.2934,289.1936 754.1134,307.6036" fill="none" id="DCPlus-to-MPL" style="stroke:#181818;stroke-width:1;"/><polygon fill="#181818" points="759.48,310.2869,753.219,302.6842,755.0079,308.0508,749.6413,309.8397,759.48,310.2869" style="stroke:#181818;stroke-width:1;"/></g><!--link DCPlus to NX2--><g class="link" data-entity-1="DCPlus" data-entity-2="NX2" data-source-line="32" data-uid="lnk23" id="link_DCPlus_NX2"><path d="M648.56,242.0169 C714.8,260.7669 816.5369,289.5626 888.1769,309.8426" fill="none" id="DCPlus-to-NX2" style="stroke:#181818;stroke-width:1;"/><polygon fill="#181818" points="893.95,311.4769,886.3798,305.1767,889.139,310.115,884.2008,312.8742,893.95,311.4769" style="stroke:#181818;stroke-width:1;"/></g><!--SRC=[VL6nJiCm4Dtz5QSiGAHswCY0X1esgAB2q2rot5DbrR6DpuP6Y7_7JTpYL0LFldVlFTyzU-aLGbckyJr8XnrgJsN9cELYptS8HMTb8zhTd8IJrbC1NmpY4QQpHaSs52xeXYirjtq1d60TzADIboHlh55crpT7Z3iyiTyIViclberLWKwqQbd7YdqpDjh3RFPmri8zY3W0mOVaGA6rpWWaogcZ_YyYku6dWqUdkG8bMyUTH890k8MsXokZisnIZVxJkFrXc7EroLkMwosdeL5NUID6IUZ6k8RhH8MEP3UgXYjZvqsFkyGt9dMqdjJ9SSf9Hlyk-flvPB_GfKzOrJbEGYRyLSXw8kcujyhu-CBGVwcVhmK6jzjUtwNO5eobFnfMhFDgzC-0es7EtYn-0000]--></g></svg>