<svg xmlns="http://www.w3.org/2000/svg" xmlns:xlink="http://www.w3.org/1999/xlink" contentStyleType="text/css" data-diagram-type="ACTIVITY" height="946px" preserveAspectRatio="none" style="width:357px;height:946px;background:#FFFFFF;" version="1.1" viewBox="0 0 357 946" width="357px" zoomAndPan="magnify"><title>**topology_compare.py Activity Workflow**</title><defs/><g><g class="title" data-source-line="1"><text fill="#000000" font-family="sans-serif" font-size="14" font-weight="bold" lengthAdjust="spacing" textLength="314.1865" x="20" y="32.9951">topology_compare.py Activity Workflow</text></g><ellipse cx="178.5933" cy="57.2969" fill="#222222" rx="10" ry="10" style="stroke:#222222;stroke-width:1;"/><rect fill="#F1F1F1" height="47.9375" rx="12.5" ry="12.5" style="stroke:#181818;stroke-width:0.5;" width="130.543" x="113.3218" y="87.2969"/><text fill="#000000" font-family="sans-serif" font-size="12" lengthAdjust="spacing" textLength="110.543" x="123.3218" y="108.4355">Receive input files</text><text fill="#000000" font-family="sans-serif" font-size="12" lengthAdjust="spacing" textLength="103.6875" x="123.3218" y="122.4043">(graphA, graphB)</text><rect fill="#F1F1F1" height="47.9375" rx="12.5" ry="12.5" style="stroke:#181818;stroke-width:0.5;" width="136.3672" x="110.4097" y="155.2344"/><text fill="#000000" font-family="sans-serif" font-size="12" lengthAdjust="spacing" textLength="116.3672" x="120.4097" y="176.373">Determine file type</text><text fill="#000000" font-family="sans-serif" font-size="12" lengthAdjust="spacing" textLength="87.6797" x="120.4097" y="190.3418">(CSV or KGML)</text><rect fill="#F1F1F1" height="47.9375" rx="12.5" ry="12.5" style="stroke:#181818;stroke-width:0.5;" width="185.2461" x="85.9702" y="271.5742"/><text fill="#000000" font-family="sans-serif" font-size="12" lengthAdjust="spacing" textLength="127.3594" x="95.9702" y="292.7129">Convert KGML &#8594; CSV</text><text fill="#000000" font-family="sans-serif" font-size="12" lengthAdjust="spacing" textLength="165.2461" x="95.9702" y="306.6816">(optional, if --convert-kgml)</text><polygon fill="#F1F1F1" points="137.8643,223.1719,219.3223,223.1719,231.3223,235.1719,219.3223,247.1719,137.8643,247.1719,125.8643,235.1719,137.8643,223.1719" style="stroke:#181818;stroke-width:0.5;"/><text fill="#000000" font-family="sans-serif" font-size="11" lengthAdjust="spacing" textLength="19.0083" x="182.5933" y="257.3823">yes</text><text fill="#000000" font-family="sans-serif" font-size="11" lengthAdjust="spacing" textLength="81.458" x="137.8643" y="238.98">Input is KGML?</text><polygon fill="#F1F1F1" points="178.5933,339.5117,190.5933,351.5117,178.5933,363.5117,166.5933,351.5117,178.5933,339.5117" style="stroke:#181818;stroke-width:0.5;"/><rect fill="#F1F1F1" height="47.9375" rx="12.5" ry="12.5" style="stroke:#181818;stroke-width:0.5;" width="304.502" x="26.3423" y="383.5117"/><text fill="#000000" font-family="sans-serif" font-size="12" lengthAdjust="spacing" textLength="156.8789" x="36.3423" y="404.6504">Load graph into NetworkX</text><text fill="#000000" font-family="sans-serif" font-size="12" lengthAdjust="spacing" textLength="284.502" x="36.3423" y="418.6191">(load_graph_from_csv / load_graph_from_kgml)</text><rect fill="#F1F1F1" height="47.9375" rx="12.5" ry="12.5" style="stroke:#181818;stroke-width:0.5;" width="215.6152" x="70.7856" y="451.4492"/><text fill="#000000" font-family="sans-serif" font-size="12" lengthAdjust="spacing" textLength="139.3242" x="80.7856" y="472.5879">Compute shortest-path</text><text fill="#000000" font-family="sans-serif" font-size="12" lengthAdjust="spacing" textLength="195.6152" x="80.7856" y="486.5566">distance matrix (Floyd-Warshall)</text><rect fill="#F1F1F1" height="47.9375" rx="12.5" ry="12.5" style="stroke:#181818;stroke-width:0.5;" width="230.1758" x="63.5054" y="519.3867"/><text fill="#000000" font-family="sans-serif" font-size="12" lengthAdjust="spacing" textLength="150.7207" x="73.5054" y="540.5254">Run persistent homology</text><text fill="#000000" font-family="sans-serif" font-size="12" lengthAdjust="spacing" textLength="210.1758" x="73.5054" y="554.4941">(ripser with distance_matrix=True)</text><rect fill="#F1F1F1" height="33.9688" rx="12.5" ry="12.5" style="stroke:#181818;stroke-width:0.5;" width="221.3691" x="67.9087" y="587.3242"/><text fill="#000000" font-family="sans-serif" font-size="12" lengthAdjust="spacing" textLength="201.3691" x="77.9087" y="608.4629">Save persistence diagrams (PNG)</text><rect fill="#F1F1F1" height="47.9375" rx="12.5" ry="12.5" style="stroke:#181818;stroke-width:0.5;" width="155.3281" x="100.9292" y="641.293"/><text fill="#000000" font-family="sans-serif" font-size="12" lengthAdjust="spacing" textLength="135.3281" x="110.9292" y="662.4316">Compute bottleneck &amp;</text><text fill="#000000" font-family="sans-serif" font-size="12" lengthAdjust="spacing" textLength="134.2324" x="110.9292" y="676.4004">Wasserstein distances</text><rect fill="#F1F1F1" height="47.9375" rx="12.5" ry="12.5" style="stroke:#181818;stroke-width:0.5;" width="141.2363" x="107.9751" y="709.2305"/><text fill="#000000" font-family="sans-serif" font-size="12" lengthAdjust="spacing" textLength="109.3535" x="117.9751" y="730.3691">Normalize metrics</text><text fill="#000000" font-family="sans-serif" font-size="12" lengthAdjust="spacing" textLength="121.2363" x="117.9751" y="744.3379">(by graph diameter)</text><rect fill="#F1F1F1" height="47.9375" rx="12.5" ry="12.5" style="stroke:#181818;stroke-width:0.5;" width="153.9102" x="101.6382" y="777.168"/><text fill="#000000" font-family="sans-serif" font-size="12" lengthAdjust="spacing" textLength="102.3984" x="111.6382" y="798.3066">Assemble results</text><text fill="#000000" font-family="sans-serif" font-size="12" lengthAdjust="spacing" textLength="133.9102" x="111.6382" y="812.2754">(DGMs, metrics, plots)</text><rect fill="#F1F1F1" height="47.9375" rx="12.5" ry="12.5" style="stroke:#181818;stroke-width:0.5;" width="141.0078" x="108.0894" y="845.1055"/><text fill="#000000" font-family="sans-serif" font-size="12" lengthAdjust="spacing" textLength="121.0078" x="118.0894" y="866.2441">Write summary.json</text><text fill="#000000" font-family="sans-serif" font-size="12" lengthAdjust="spacing" textLength="103.3418" x="118.0894" y="880.2129">and summary.txt</text><ellipse cx="178.5933" cy="924.043" fill="none" rx="11" ry="11" style="stroke:#222222;stroke-width:1;"/><ellipse cx="178.5933" cy="924.043" fill="#222222" rx="6" ry="6" style="stroke:#222222;stroke-width:1;"/><line style="stroke:#181818;stroke-width:1;" x1="178.5933" x2="178.5933" y1="67.2969" y2="87.2969"/><polygon fill="#181818" points="174.5933,77.2969,178.5933,87.2969,182.5933,77.2969,178.5933,81.2969" style="stroke:#181818;stroke-width:1;"/><line style="stroke:#181818;stroke-width:1;" x1="178.5933" x2="178.5933" y1="135.2344" y2="155.2344"/><polygon fill="#181818" points="174.5933,145.2344,178.5933,155.2344,182.5933,145.2344,178.5933,149.2344" style="stroke:#181818;stroke-width:1;"/><line style="stroke:#181818;stroke-width:1;" x1="178.5933" x2="178.5933" y1="247.1719" y2="271.5742"/><polygon fill="#181818" points="174.5933,261.5742,178.5933,271.5742,182.5933,261.5742,178.5933,265.5742" style="stroke:#181818;stroke-width:1;"/><line style="stroke:#181818;stroke-width:1;" x1="231.3223" x2="281.2163" y1="235.1719" y2="235.1719"/><polygon fill="#181818" points="277.2163,285.543,281.2163,295.543,285.2163,285.543,281.2163,289.543" style="stroke:#181818;stroke-width:1;"/><line style="stroke:#181818;stroke-width:1;" x1="281.2163" x2="281.2163" y1="235.1719" y2="351.5117"/><line style="stroke:#181818;stroke-width:1;" x1="281.2163" x2="190.5933" y1="351.5117" y2="351.5117"/><polygon fill="#181818" points="200.5933,347.5117,190.5933,351.5117,200.5933,355.5117,196.5933,351.5117" style="stroke:#181818;stroke-width:1;"/><line style="stroke:#181818;stroke-width:1;" x1="178.5933" x2="178.5933" y1="319.5117" y2="339.5117"/><polygon fill="#181818" points="174.5933,329.5117,178.5933,339.5117,182.5933,329.5117,178.5933,333.5117" style="stroke:#181818;stroke-width:1;"/><line style="stroke:#181818;stroke-width:1;" x1="178.5933" x2="178.5933" y1="203.1719" y2="223.1719"/><polygon fill="#181818" points="174.5933,213.1719,178.5933,223.1719,182.5933,213.1719,178.5933,217.1719" style="stroke:#181818;stroke-width:1;"/><line style="stroke:#181818;stroke-width:1;" x1="178.5933" x2="178.5933" y1="363.5117" y2="383.5117"/><polygon fill="#181818" points="174.5933,373.5117,178.5933,383.5117,182.5933,373.5117,178.5933,377.5117" style="stroke:#181818;stroke-width:1;"/><line style="stroke:#181818;stroke-width:1;" x1="178.5933" x2="178.5933" y1="431.4492" y2="451.4492"/><polygon fill="#181818" points="174.5933,441.4492,178.5933,451.4492,182.5933,441.4492,178.5933,445.4492" style="stroke:#181818;stroke-width:1;"/><line style="stroke:#181818;stroke-width:1;" x1="178.5933" x2="178.5933" y1="499.3867" y2="519.3867"/><polygon fill="#181818" points="174.5933,509.3867,178.5933,519.3867,182.5933,509.3867,178.5933,513.3867" style="stroke:#181818;stroke-width:1;"/><line style="stroke:#181818;stroke-width:1;" x1="178.5933" x2="178.5933" y1="567.3242" y2="587.3242"/><polygon fill="#181818" points="174.5933,577.3242,178.5933,587.3242,182.5933,577.3242,178.5933,581.3242" style="stroke:#181818;stroke-width:1;"/><line style="stroke:#181818;stroke-width:1;" x1="178.5933" x2="178.5933" y1="621.293" y2="641.293"/><polygon fill="#181818" points="174.5933,631.293,178.5933,641.293,182.5933,631.293,178.5933,635.293" style="stroke:#181818;stroke-width:1;"/><line style="stroke:#181818;stroke-width:1;" x1="178.5933" x2="178.5933" y1="689.2305" y2="709.2305"/><polygon fill="#181818" points="174.5933,699.2305,178.5933,709.2305,182.5933,699.2305,178.5933,703.2305" style="stroke:#181818;stroke-width:1;"/><line style="stroke:#181818;stroke-width:1;" x1="178.5933" x2="178.5933" y1="757.168" y2="777.168"/><polygon fill="#181818" points="174.5933,767.168,178.5933,777.168,182.5933,767.168,178.5933,771.168" style="stroke:#181818;stroke-width:1;"/><line style="stroke:#181818;stroke-width:1;" x1="178.5933" x2="178.5933" y1="825.1055" y2="845.1055"/><polygon fill="#181818" points="174.5933,835.1055,178.5933,845.1055,182.5933,835.1055,178.5933,839.1055" style="stroke:#181818;stroke-width:1;"/><line style="stroke:#181818;stroke-width:1;" x1="178.5933" x2="178.5933" y1="893.043" y2="913.043"/><polygon fill="#181818" points="174.5933,903.043,178.5933,913.043,182.5933,903.043,178.5933,907.043" style="stroke:#181818;stroke-width:1;"/><!--SRC=[NP91Rjj034NtEWLNXMnOoTv1KBW9QWH9ZA8fwYuC26E9iYQU6Guub1tb03r0ZzYJb99ZBwgD0FBpyUjJOiKXJAT2aHpj-h8Y7mtZLUnXKOazMEbXJRnl71sdqonBObYoRFuTAxG711jY9z1OXsaJyXsRs2vcCBw_J6wo-JqAihS1Hmr87r5rToy_WHWUbyzFAifi0_d32B9fB7wUWBGO8EynJJBGPtv7uO0iOnl-_lu3ob0IHR4KZ9k1GegYEgcA_Sux9MEeRQDkdyZK9rDgM0XMA4Vzg5yASDegnrRPCFcoIWUuXl-h7pnruTKcGcg91PCKqKYxqIsQIwWGl16sRv1_TTJNnTfmQeqR9ZMnBa14JYh58D2I7nDN2snZGeQZbHREfF94klt17GwBNuo6VHdNJRKrwiydoB-jbkE2ixSjYHurOBM7JvkmDadXEcJ31PuKk2BsnjbtzOowgHhEj-q_GbAu7mutSXSAy5iz7cFgd0p2- -Lpcfq7Pn0TIHfShjaEuNJU6-wlNXE5JJ2XlbJaJMw6VuZYFm00]--></g></svg>